<svg width="25" height="25" viewBox="0 0 25 25" fill="none" xmlns="http://www.w3.org/2000/svg">
<path d="M22.6562 12.5C22.6562 15.1936 21.5862 17.7769 19.6816 19.6816C17.7769 21.5862 15.1936 22.6562 12.5 22.6562C9.80639 22.6562 7.22311 21.5862 5.31845 19.6816C3.41378 17.7769 2.34375 15.1936 2.34375 12.5C2.34375 9.80639 3.41378 7.22311 5.31845 5.31845C7.22311 3.41378 9.80639 2.34375 12.5 2.34375C15.1936 2.34375 17.7769 3.41378 19.6816 5.31845C21.5862 7.22311 22.6562 9.80639 22.6562 12.5ZM0 12.5C0 15.8152 1.31696 18.9946 3.66117 21.3388C6.00537 23.683 9.18479 25 12.5 25C15.8152 25 18.9946 23.683 21.3388 21.3388C23.683 18.9946 25 15.8152 25 12.5C25 9.18479 23.683 6.00537 21.3388 3.66117C18.9946 1.31696 15.8152 0 12.5 0C9.18479 0 6.00537 1.31696 3.66117 3.66117C1.31696 6.00537 0 9.18479 0 12.5ZM11.3281 5.85938V12.5C11.3281 12.8906 11.5234 13.2568 11.8506 13.4766L16.5381 16.6016C17.0752 16.9629 17.8027 16.8164 18.1641 16.2744C18.5254 15.7324 18.3789 15.0098 17.8369 14.6484L13.6719 11.875V5.85938C13.6719 5.20996 13.1494 4.6875 12.5 4.6875C11.8506 4.6875 11.3281 5.20996 11.3281 5.85938Z" fill="black"/>
</svg>
