<svg width="30" height="27" viewBox="0 0 30 27" fill="none" xmlns="http://www.w3.org/2000/svg">
<path d="M0.677991 1.5502L0.679868 1.54629C0.983287 0.907569 1.62722 0.5 2.34372 0.5H27.6592C28.3757 0.5 29.0196 0.907569 29.323 1.54629C29.6266 2.18542 29.5349 2.93746 29.084 3.48549C29.0839 3.48553 29.0839 3.48558 29.0839 3.48562L18.3661 16.4829L18.2519 16.6214V16.801V24.1925C18.2519 24.706 17.9613 25.1772 17.4941 25.407C17.0205 25.6398 16.4657 25.5905 16.0507 25.2806L16.0501 25.2801L12.2996 22.4887L12.2972 22.4869C11.9525 22.2335 11.751 21.8315 11.751 21.401V16.801V16.6214L11.6368 16.4828L0.913473 3.48016C0.913371 3.48004 0.913269 3.47991 0.913168 3.47979C0.466625 2.93584 0.372343 2.17948 0.677991 1.5502Z" stroke="#202020"/>
</svg>
