<svg width="31" height="30" viewBox="0 0 31 30" fill="none" xmlns="http://www.w3.org/2000/svg">
<path d="M20.8847 0.904337L20.8861 0.905667L21.664 1.67777C21.6643 1.678 21.6645 1.67823 21.6647 1.67846C22.1088 2.12218 22.7098 2.375 23.3418 2.375H29.125C29.886 2.375 30.5 2.98903 30.5 3.75V11.25C30.5 12.011 29.886 12.625 29.125 12.625H16C15.239 12.625 14.625 12.011 14.625 11.25V1.875C14.625 1.11403 15.239 0.5 16 0.5H19.9141C20.2778 0.5 20.6257 0.645352 20.8847 0.904335L20.8847 0.904337ZM16 17.375H16.0007L19.9141 17.3691C19.9143 17.3691 19.9145 17.3691 19.9147 17.3691C20.2782 17.3693 20.6259 17.5146 20.8847 17.7735L21.664 18.5528C22.1082 18.9969 22.7095 19.25 23.3418 19.25H29.125C29.886 19.25 30.5 19.864 30.5 20.625V28.125C30.5 28.886 29.886 29.5 29.125 29.5H16C15.239 29.5 14.625 28.886 14.625 28.125V18.75C14.625 17.989 15.239 17.375 16 17.375Z" stroke="black"/>
<path d="M1 1.875V6.5625M10.375 24.375H1V6.5625M1 6.5625H9.4375" stroke="black" stroke-linecap="round" stroke-linejoin="round"/>
</svg>
