<svg width="15" height="16" viewBox="0 0 15 16" fill="none" xmlns="http://www.w3.org/2000/svg">
<path d="M7.5 8.5625C8.61888 8.5625 9.69194 8.11803 10.4831 7.32686C11.2743 6.53569 11.7188 5.46263 11.7188 4.34375C11.7188 3.22487 11.2743 2.15181 10.4831 1.36064C9.69194 0.569474 8.61888 0.125 7.5 0.125C6.38112 0.125 5.30806 0.569474 4.51689 1.36064C3.72572 2.15181 3.28125 3.22487 3.28125 4.34375C3.28125 5.46263 3.72572 6.53569 4.51689 7.32686C5.30806 8.11803 6.38112 8.5625 7.5 8.5625ZM4.72559 10.25C2.11523 10.25 0 12.3652 0 14.9756C0 15.4736 0.404297 15.875 0.899414 15.875H14.1006C14.5986 15.875 15 15.4707 15 14.9756C15 12.3652 12.8848 10.25 10.2744 10.25H4.72559Z" fill="#202020"/>
</svg>
